<svg width="40" height="40" viewBox="0 0 40 40" fill="none" xmlns="http://www.w3.org/2000/svg">
<path d="M20 10.7402C11.7125 10.7402 5 17.4527 5 25.7402C4.9983 28.8891 5.98822 31.9586 7.82933 34.5132C9.67043 37.0679 12.2692 38.9778 15.257 39.9722C16.007 40.1027 16.2875 39.6527 16.2875 39.2582C16.2875 38.9027 16.268 37.7222 16.268 36.4652C12.5 37.1597 11.525 35.5472 11.225 34.7027C11.0555 34.2707 10.325 32.9402 9.6875 32.5832C9.1625 32.3027 8.4125 31.6082 9.668 31.5902C10.85 31.5707 11.693 32.6777 11.975 33.1277C13.325 35.3957 15.482 34.7582 16.343 34.3652C16.475 33.3902 16.868 32.7347 17.3 32.3597C13.9625 31.9847 10.475 30.6902 10.475 24.9527C10.475 23.3207 11.0555 21.9722 12.0125 20.9207C11.8625 20.5457 11.3375 19.0082 12.1625 16.9457C12.1625 16.9457 13.418 16.5527 16.2875 18.4847C17.5086 18.1458 18.7703 17.9752 20.0375 17.9777C21.3125 17.9777 22.5875 18.1457 23.7875 18.4832C26.6555 16.5332 27.9125 16.9472 27.9125 16.9472C28.7375 19.0097 28.2125 20.5472 28.0625 20.9222C29.018 21.9722 29.6 23.3027 29.6 24.9527C29.6 30.7097 26.0945 31.9847 22.757 32.3597C23.3 32.8277 23.7695 33.7277 23.7695 35.1347C23.7695 37.1402 23.75 38.7527 23.75 39.2597C23.75 39.6527 24.032 40.1207 24.782 39.9707C27.7595 38.9654 30.3469 37.0517 32.1799 34.499C34.0128 31.9462 34.9991 28.8829 35 25.7402C35 17.4527 28.2875 10.7402 20 10.7402Z" fill="#FFFCF3"/>
</svg>
